REM DIRINDEX 1\2,1\3,1\4
REM DIRNAME cjc064,folder01,folder02,folder03
TITLE ""
FILE "Disk2Track57.mp3" MP3
  TRACK 01 AUDIO
    TITLE "4:cjc064_1831"
    INDEX 01 00:00:00
  TRACK 02 AUDIO
    TITLE "4:cjc064_1832"
    INDEX 01 00:03:19
  TRACK 03 AUDIO
    TITLE "4:cjc064_1833"
    INDEX 01 00:05:22
  TRACK 04 AUDIO
    TITLE "4:cjc064_1834"
    INDEX 01 00:08:13
  TRACK 05 AUDIO
    TITLE "0:"
    INDEX 01 00:10:55
